# xmcd CD database file
#
# Track frame offsets:
#	150
#	19114
#	43642
#	65151
#	82916
#	111401
#	141647
#	184393
#
# Disc length: 2466 seconds
#
# Revision: 0
# Processed by: cddbd v1.5.1PL2 Copyright (c) Steve Scherf et al.
# Submitted via: CDex 1.51
#
DISCID=7609a008
DTITLE=Dirty Dozen Brass Band - This Is the Dirty Dozen Brass Band Collection [CD1]
DYEAR=2005
DGENRE=Jazz
TTITLE0=My Feet Can't Fail Me Now
TTITLE1=Mardi Gras In New Orleans
TTITLE2=Blackbird Special
TTITLE3=Oop Pop A Dah (With Dizzy Gill
TTITLE4=Charlie Dozen
TTITLE5=Freakish
TTITLE6=Cissy Strut
TTITLE7=Data Track
EXTD=YEAR: 2005
EXTT0=
EXTT1=
EXTT2=
EXTT3=
EXTT4=
EXTT5=
EXTT6=
EXTT7=
PLAYORDER=
